<?xml version="1.0" encoding="UTF-8"?> <svg xmlns="http://www.w3.org/2000/svg" xmlns:xlink="http://www.w3.org/1999/xlink" version="1.1" id="Ebene_1" x="0px" y="0px" viewBox="0 0 445.7 79.4" style="enable-background:new 0 0 445.7 79.4;" xml:space="preserve"> <g> <g> <g> <path d="M29.6,46.4v21.4c0,1.3-0.7,2-2,2h-3.7c-1.3,0-2.1-0.7-2.1-2v-2.7c-2.4,3.7-5.5,5.6-8.6,5.6c-5.3,0-8.9-4-8.9-11.1v-1.9 c0-6.3,4.2-10.4,11-10.4c1.6,0,4.1,0.4,6,0.7v-2.7c0-3-1.3-4.2-4.8-4.2c-1.9,0-4.8,0.6-7.3,1c-1.4,0.2-2.2-0.4-2.2-1.9v-3.2 c0-1.4,0.7-2.2,2.4-2.4c2.9-0.4,6-0.9,8-0.9C26.2,33.8,29.6,37,29.6,46.4z M12.7,58.2v0.6c0,2.9,1.3,4.3,3,4.3 c1.8,0,3.9-1.5,5.5-4.6v-4.6c-1.4-0.2-3-0.4-4.1-0.4C14.2,53.5,12.7,55.2,12.7,58.2z"></path> <path d="M45.4,20.7c1.3,0,2.1,0.7,2.1,2v16c2.4-3.2,5.2-4.8,8.4-4.8c5.7,0,9,4,9,12.2v21.7c0,1.3-0.7,2-2,2h-4.3 c-1.4,0-2.1-0.7-2.1-2V46.9c0-4-1.3-5.3-3.2-5.3c-1.9,0-4.2,1.6-5.8,4.3v21.8c0,1.3-0.8,2-2.1,2h-4.3c-1.3,0-2-0.7-2-2V22.7 c0-1.3,0.7-2,2-2H45.4z"></path> <path d="M93.4,20.2c1.2,0.3,1.7,0.9,1.7,2.2v3c0,1.4-0.6,2.2-2,1.9c-0.9-0.1-2.1-0.3-2.8-0.3c-2.4,0-3.9,1.4-3.9,5v2.7h4.5 c1.3,0,2,0.7,2,2v3.2c0,1.3-0.7,2.1-2,2.1h-4.5v25.8c0,1.3-0.8,2-2.1,2h-4.3c-1.3,0-2-0.7-2-2V42h-2.5c-1.3,0-2.1-0.8-2.1-2.1 v-3.2c0-1.3,0.8-2,2.1-2h2.5v-3C78,23.9,82,19.8,89.1,19.8C90.3,19.8,92,19.9,93.4,20.2z"></path> <path d="M118.7,34.6c1.2,0.3,1.9,1,1.9,2.2l-0.1,3.2c0,1.4-0.9,2.2-2.3,1.8c-2-0.5-4-0.8-5.5-0.8c-3.4,0-4.6,1.1-4.6,2.9v0.4 c0,1.2,0.6,1.8,2.2,2.5l6.6,3c4.3,2,6.3,5,6.3,8.8v1.4c-0.1,6.8-3.7,10.5-12.5,10.5c-2.5,0-5.3-0.4-8.3-1.2 c-1.2-0.4-1.8-1.1-1.7-2.3l0.1-3.5c0.1-1.5,0.9-2.2,2.4-1.7c2.7,0.8,5.3,1.3,7.3,1.3c3.4,0,4.4-0.9,4.4-2.9v-0.4 c0-1.5-0.5-2.4-2.1-3.1l-6.3-2.7c-4.5-1.9-6.7-4.9-6.7-8.8v-0.9c0-7,3.8-10.5,12.5-10.5C114.4,33.8,116.4,34.1,118.7,34.6z"></path> </g> </g> <path d="M194,40.6h-7.3c-2,0-3.5,1.6-3.6,3.5c0-6.4-2.5-12.8-7.3-17.7c0.7,0.6,1.6,1,2.4,1c0.9,0,1.9-0.4,2.6-1.1l5.1-5.1 c1.4-1.4,1.4-3.8,0-5.2c-1.4-1.4-3.8-1.4-5.2,0l-5.1,5.1c-1.4,1.4-1.4,3.6-0.1,5c-4.9-4.8-11.3-7.3-17.7-7.3 c1.9-0.1,3.5-1.7,3.5-3.6V7.9c0-2-1.6-3.7-3.7-3.7s-3.7,1.6-3.7,3.7v7.3c0,2,1.5,3.5,3.5,3.6c-6.4,0-12.8,2.5-17.7,7.3 c1.3-1.4,1.3-3.6-0.1-5l-5.1-5.1c-1.4-1.4-3.8-1.4-5.2,0c-1.4,1.4-1.4,3.8,0,5.2l5.1,5.1c0.7,0.7,1.7,1.1,2.6,1.1 c0.9,0,1.7-0.3,2.4-0.9c-1,1-1.8,2.1-2.5,3.1c-1.2,1.7-0.8,3.9,0.9,5.1c1.7,1.2,4,0.8,5.1-0.9c0.5-0.6,1-1.2,1.5-1.8 c-1,1.4-0.9,3.3,0.4,4.6l3.1,3.1c-0.3,0.6-0.6,1.2-0.7,1.8c-0.5,2,0.7,4,2.6,4.5c2,0.5,4-0.7,4.5-2.6c0.2-0.6,0.5-1.2,0.9-1.6 c1.4-1.4,3.7-1.4,5.1,0c0.7,0.7,1.1,1.6,1.1,2.5c0,0,0,0,0,0c0,0,0,0,0,0c0,0.9-0.4,1.8-1.1,2.5c-0.4,0.4-1,0.7-1.6,0.9 c-2,0.5-3.1,2.5-2.6,4.5c0.4,1.6,1.9,2.7,3.6,2.7c0.3,0,0.6,0,0.9-0.1c0.6-0.2,1.2-0.5,1.8-0.7l3.1,3.1c0.7,0.7,1.7,1.1,2.6,1.1 c0.7,0,1.4-0.3,2-0.7c-0.6,0.5-1.2,1-1.8,1.5c-1.7,1.2-2,3.5-0.9,5.1c0.7,1,1.8,1.5,3,1.5c0.7,0,1.5-0.2,2.1-0.7 c1-0.7,2.1-1.5,3.1-2.5c-1.2,1.4-1.2,3.6,0.2,5l5.1,5.1c0.7,0.7,1.7,1.1,2.6,1.1c0.9,0,1.9-0.4,2.6-1.1c1.4-1.4,1.4-3.8,0-5.2 l-5.1-5.1c-1.4-1.4-3.6-1.4-5-0.1c4.8-4.9,7.2-11.3,7.3-17.7c0.1,1.9,1.7,3.5,3.6,3.5h7.3c2,0,3.7-1.6,3.7-3.7 C197.7,42.3,196,40.6,194,40.6z M167.9,40.7c-0.1-0.3-0.3-0.7-0.4-1l3-3c1.3-1.3,1.3-3.2,0.4-4.6c3,3.3,4.7,7.4,4.8,11.6 c-0.3-1.7-1.7-3-3.5-3L167.9,40.7z M161.3,34v-4.3c0-1.8-1.3-3.2-3-3.5c4.2,0.2,8.3,1.8,11.6,4.8c-1.4-1-3.4-0.9-4.6,0.4l-3,3 C161.9,34.3,161.6,34.2,161.3,34z M145.3,31.1c3.3-3.1,7.4-4.7,11.7-4.8c-1.7,0.3-3,1.7-3,3.5V34c-0.3,0.1-0.7,0.3-1,0.4l-3-3 C148.6,30.2,146.7,30.1,145.3,31.1z M170.9,56.6c1-1.4,0.9-3.4-0.4-4.6l-3-3c0.2-0.3,0.3-0.7,0.4-1l4.3,0h0c1.8,0,3.2-1.3,3.5-3 C175.5,49.2,173.9,53.4,170.9,56.6z"></path> </g> <g> <path d="M220.1,22c0.5,0.1,0.7,0.4,0.7,0.8v1c0,0.5-0.3,0.8-0.8,0.7c-0.9-0.2-2.1-0.4-3.2-0.4c-2.6,0-3.5,0.9-3.5,3.3v7.7 c0,2.4,0.9,3.3,3.5,3.3c1.1,0,2.3-0.2,3.2-0.4c0.5-0.1,0.8,0.1,0.8,0.7l0,1.1c0,0.5-0.2,0.7-0.7,0.8c-1.1,0.2-2.4,0.4-3.5,0.4 c-4.6,0-6.2-2-6.2-5.9v-7.7c0-4,1.7-5.9,6.2-5.9C217.8,21.6,218.9,21.8,220.1,22z"></path> <path d="M227.2,21.2c0.5,0,0.7,0.3,0.7,0.7v6.6c1-1.4,2.2-2.1,3.5-2.1c2.3,0,3.7,1.7,3.7,4.8V40c0,0.5-0.3,0.7-0.7,0.7h-1.3 c-0.5,0-0.8-0.3-0.8-0.7v-8.4c0-1.9-0.7-2.5-1.6-2.5c-1,0-2,0.8-2.8,2.1V40c0,0.5-0.3,0.7-0.7,0.7h-1.3c-0.5,0-0.7-0.3-0.7-0.7 V21.9c0-0.5,0.3-0.7,0.7-0.7H227.2z"></path> <path d="M246.8,27.2v1.7c0,0.5-0.2,0.6-0.6,0.6c-0.3,0-0.4,0-0.6,0c-1.1,0-2.2,0.6-3,1.9V40c0,0.5-0.3,0.7-0.7,0.7h-1.3 c-0.5,0-0.7-0.3-0.7-0.7V27.5c0-0.5,0.3-0.7,0.7-0.7h1.1c0.5,0,0.8,0.3,0.8,0.7v1.3c1-1.5,2.3-2.4,3.6-2.4 C246.7,26.4,246.8,26.7,246.8,27.2z"></path> <path d="M253.4,22.3v0.8c0,0.9-0.6,1.5-1.8,1.5c-1.1,0-1.7-0.5-1.7-1.5v-0.8c0-1,0.7-1.5,1.7-1.5C252.8,20.8,253.4,21.4,253.4,22.3 z M252.3,26.7c0.5,0,0.7,0.3,0.7,0.7V40c0,0.5-0.3,0.7-0.7,0.7H251c-0.5,0-0.7-0.3-0.7-0.7V27.5c0-0.5,0.3-0.7,0.7-0.7H252.3z"></path> <path d="M264.3,26.7c0.5,0.1,0.7,0.4,0.7,0.8v0.9c0,0.5-0.3,0.8-0.9,0.7c-0.7-0.2-1.5-0.3-2.1-0.3c-1.5,0-2.2,0.5-2.2,1.4v0.2 c0,0.6,0.3,0.9,1.1,1.3l2.7,1.2c1.7,0.8,2.5,2,2.5,3.4V37c0,2.6-1.4,4-4.8,4c-0.9,0-2-0.2-3.2-0.5c-0.5-0.1-0.7-0.4-0.6-0.8l0-1.1 c0-0.6,0.4-0.8,0.9-0.6c1,0.3,2.1,0.5,2.9,0.5c1.6,0,2.1-0.4,2.1-1.4v-0.2c0-0.8-0.3-1.2-1-1.5l-2.7-1.1c-1.8-0.8-2.6-1.9-2.6-3.4 v-0.4c0-2.7,1.5-4,4.9-4C262.7,26.4,263.4,26.5,264.3,26.7z"></path> <path d="M272.5,23c0.4,0,0.7,0.3,0.7,0.7v3h2.8c0.5,0,0.8,0.3,0.8,0.7v0.9c0,0.5-0.3,0.7-0.8,0.7h-2.8v7.6c0,1.4,0.5,1.9,1.7,1.9 c0.5,0,1.1-0.1,1.6-0.2c0.5-0.1,0.8,0.1,0.8,0.7l0,0.9c0,0.5-0.2,0.7-0.6,0.8c-0.5,0.1-1.4,0.3-2,0.3c-3,0-4.4-1.3-4.4-4.6v-7.4 h-1.1c-0.5,0-0.8-0.3-0.8-0.7v-0.9c0-0.5,0.3-0.7,0.8-0.7h1.2l0.4-3c0.1-0.5,0.3-0.7,0.7-0.7H272.5z"></path> <path d="M282.9,21.2c0.5,0,0.7,0.3,0.7,0.7V40c0,0.5-0.3,0.7-0.7,0.7h-1.3c-0.5,0-0.7-0.3-0.7-0.7V21.9c0-0.5,0.3-0.7,0.7-0.7 H282.9z"></path> <path d="M291.5,22.3v0.8c0,0.9-0.6,1.5-1.8,1.5c-1.1,0-1.7-0.5-1.7-1.5v-0.8c0-1,0.7-1.5,1.7-1.5C290.9,20.8,291.5,21.4,291.5,22.3 z M290.4,26.7c0.5,0,0.7,0.3,0.7,0.7V40c0,0.5-0.3,0.7-0.7,0.7h-1.3c-0.5,0-0.7-0.3-0.7-0.7V27.5c0-0.5,0.3-0.7,0.7-0.7H290.4z"></path> <path d="M303.3,26.7c0.5,0.1,0.7,0.4,0.7,0.8l0,1c0,0.5-0.3,0.7-0.9,0.6c-0.7-0.1-1.3-0.2-2-0.2c-1.7,0-2.6,0.9-2.6,2.7v4.2 c0,1.9,1,2.7,2.6,2.7c0.8,0,1.4-0.1,2.1-0.3c0.5-0.1,0.8,0.1,0.8,0.7l0,1c0,0.5-0.1,0.7-0.7,0.9c-1,0.2-1.7,0.2-2.4,0.2 c-3.5,0-5.2-1.8-5.2-5.3v-4.1c0-3.4,1.6-5.3,5.2-5.3C301.6,26.4,302.3,26.5,303.3,26.7z"></path> <path d="M310.2,21.2c0.5,0,0.7,0.3,0.7,0.7v6.6c1-1.4,2.2-2.1,3.5-2.1c2.3,0,3.7,1.7,3.7,4.8V40c0,0.5-0.3,0.7-0.7,0.7h-1.3 c-0.5,0-0.8-0.3-0.8-0.7v-8.4c0-1.9-0.7-2.5-1.6-2.5c-1,0-2,0.8-2.8,2.1V40c0,0.5-0.3,0.7-0.7,0.7h-1.3c-0.5,0-0.7-0.3-0.7-0.7 V21.9c0-0.5,0.3-0.7,0.7-0.7H310.2z"></path> <path d="M332.5,31.6v1.9c0,0.8-0.3,1.2-1.2,1.2h-6v1.4c0,1.7,0.8,2.5,2.7,2.5c0.9,0,2-0.1,2.9-0.3c0.5-0.1,0.8,0.1,0.8,0.7l0.1,1 c0,0.5-0.3,0.7-0.7,0.8c-1.1,0.3-2.4,0.4-3.4,0.4c-3.8,0-5.3-1.7-5.3-5.2v-4.2c0-3.3,1.6-5.2,5-5.2 C330.7,26.4,332.5,28.2,332.5,31.6z M325.3,31.2v1.3h4.3v-1.2c0-1.7-0.9-2.5-2.2-2.5C326.2,28.8,325.3,29.6,325.3,31.2z"></path> <path d="M354.3,26.2v0.6c0,1.9-0.8,3.4-2.7,4.2c2.2,0.5,3.5,2,3.5,4.3v0.6c0,3-2.1,5.2-6.8,5.2c-1.5,0-2.4,0-4.6-0.1 c-0.5,0-0.7-0.3-0.7-0.7V22.5c0-0.5,0.2-0.7,0.7-0.7c1.2-0.1,2.8-0.1,4.4-0.1C352.2,21.6,354.3,23.5,354.3,26.2z M345.8,24.2V30 h2.5c2.1,0,3.2-1.1,3.2-2.9v-0.5c0-1.7-1-2.6-3.7-2.6C347.1,24.1,346.5,24.1,345.8,24.2z M345.8,32.4v6c1.3,0.1,1.6,0.1,2.5,0.1 c2.8,0,3.9-1.1,3.9-2.9v-0.6c0-1.7-1.1-2.7-3.8-2.7H345.8z"></path> <path d="M362,22.3v0.8c0,0.9-0.6,1.5-1.8,1.5c-1.1,0-1.7-0.5-1.7-1.5v-0.8c0-1,0.7-1.5,1.7-1.5C361.4,20.8,362,21.4,362,22.3z M360.9,26.7c0.5,0,0.7,0.3,0.7,0.7V40c0,0.5-0.3,0.7-0.7,0.7h-1.3c-0.5,0-0.7-0.3-0.7-0.7V27.5c0-0.5,0.3-0.7,0.7-0.7H360.9z"></path> <path d="M368.5,21.2c0.5,0,0.7,0.3,0.7,0.7V40c0,0.5-0.3,0.7-0.7,0.7h-1.3c-0.5,0-0.7-0.3-0.7-0.7V21.9c0-0.5,0.3-0.7,0.7-0.7 H368.5z"></path> <path d="M383.1,21.2c0.5,0,0.7,0.3,0.7,0.7V40c0,0.5-0.3,0.7-0.7,0.7h-1.1c-0.5,0-0.8-0.3-0.8-0.7v-1.4c-1.1,1.6-2.3,2.5-3.8,2.5 c-2.3,0-3.6-1.6-3.6-4.8v-5c0-3.1,1.4-4.8,4-4.8c1.2,0,2.5,0.7,3.3,1.3v-5.8c0-0.5,0.3-0.7,0.7-0.7H383.1z M376.6,31.6v4.4 c0,1.9,0.6,2.6,1.5,2.6c1,0,2-0.8,2.9-2.3v-6c-0.7-0.7-1.8-1.3-2.5-1.3C377.3,28.9,376.6,29.7,376.6,31.6z"></path> <path d="M397.7,26.7c0.5,0,0.8,0.3,0.8,0.7V40c0,0.5-0.3,0.7-0.8,0.7h-1.1c-0.5,0-0.7-0.3-0.7-0.7v-1.2c-1,1.5-2.3,2.3-3.7,2.3 c-2.2,0-3.6-1.5-3.6-4.8v-8.8c0-0.5,0.3-0.7,0.7-0.7h1.3c0.5,0,0.8,0.3,0.8,0.7v8.3c0,1.9,0.6,2.6,1.5,2.6c0.9,0,2-0.7,2.7-2v-8.9 c0-0.5,0.3-0.7,0.7-0.7H397.7z"></path> <path d="M413.3,31.2V40c0,0.5-0.3,0.7-0.7,0.7h-1.3c-0.5,0-0.8-0.3-0.8-0.7v-8.4c0-1.8-0.6-2.5-1.6-2.5s-2,0.8-2.8,2.1V40 c0,0.5-0.3,0.7-0.7,0.7H404c-0.5,0-0.7-0.3-0.7-0.7V27.5c0-0.5,0.3-0.7,0.7-0.7h1.1c0.5,0,0.8,0.3,0.8,0.7v1.3 c1-1.5,2.3-2.4,3.7-2.4C411.9,26.4,413.3,28.1,413.3,31.2z"></path> <path d="M425,26.8l3.9-0.1c0.5,0,0.7,0.2,0.7,0.7v0.9c0,0.5-0.2,0.8-0.8,0.8l-1.5-0.1c0.3,0.6,0.5,1.3,0.5,2.1v0.6 c0,2.6-1.7,4.6-5,4.6c-0.8,0-1.5-0.1-2.1-0.3c-0.4,0.3-0.5,0.7-0.5,1v0.2c0,0.5,0.3,0.7,1.2,0.8l4.1,0.3c1.8,0.1,3.1,1.4,3.1,3.3 v1.1c0,2.4-1.1,3.7-5.8,3.7c-1.1,0-2.8-0.2-4.2-0.5c-0.5-0.1-0.7-0.4-0.6-0.9l0-1c0-0.5,0.3-0.8,0.9-0.6c1.3,0.4,2.8,0.6,3.8,0.6 c2.8,0,3.1-0.4,3.1-1.6v-0.2c0-0.7-0.4-1.2-1.2-1.2l-4.2-0.3c-2-0.1-2.9-1.1-2.9-2.7v-0.5c0-0.9,0.5-1.7,1.3-2.3 c-0.7-0.7-1-1.9-1-3.5v-0.6c0-2.7,1.7-4.5,5-4.5C423.6,26.4,424.3,26.5,425,26.8z M420.6,30.9v0.9c0,1.8,0.4,2.1,2,2.1 c1.6,0,2.3-0.8,2.3-2.1V31c0-0.8-0.1-1.4-0.3-1.9c-0.4-0.2-1.1-0.3-1.9-0.3C421.4,28.8,420.6,29.5,420.6,30.9z"></path> <path d="M222.3,50.6c0.5,0,0.7,0.3,0.7,0.7v17.3c0,0.5-0.3,0.7-0.7,0.7h-1.3c-0.5,0-0.8-0.3-0.8-0.7V61h-6.8v7.6 c0,0.5-0.3,0.7-0.8,0.7h-1.3c-0.5,0-0.7-0.3-0.7-0.7V51.4c0-0.5,0.3-0.7,0.7-0.7h1.3c0.5,0,0.8,0.3,0.8,0.7v7h6.8v-7 c0-0.5,0.3-0.7,0.8-0.7H222.3z"></path> <path d="M237.1,59.9v8.8c0,0.5-0.3,0.7-0.7,0.7h-1.2c-0.5,0-0.7-0.3-0.7-0.7v-1.3c-1.1,1.6-2.3,2.4-3.6,2.4c-2.2,0-3.6-1.6-3.6-4.3 v-0.8c0-2.3,1.6-4,4.4-4c0.7,0,1.9,0.2,2.7,0.3v-1.3c0-1.5-0.7-2-2.1-2c-0.8,0-2.1,0.2-3,0.4c-0.5,0.1-0.8-0.2-0.8-0.7v-1 c0-0.5,0.3-0.8,0.9-0.9c1.1-0.2,2.4-0.3,3.2-0.3C235.7,55.1,237.1,56.4,237.1,59.9z M230.1,64.9v0.3c0,1.3,0.7,2,1.5,2 c0.9,0,1.9-0.8,2.7-2.2v-2.1c-0.7-0.1-1.5-0.2-2-0.2C230.8,62.7,230.1,63.5,230.1,64.9z"></path> <path d="M258.9,59.9v8.8c0,0.5-0.3,0.7-0.8,0.7h-1.3c-0.5,0-0.7-0.3-0.7-0.7v-8.4c0-1.9-0.6-2.5-1.6-2.5c-0.9,0-2,0.8-2.8,2.1v8.9 c0,0.5-0.3,0.7-0.8,0.7h-1.3c-0.5,0-0.7-0.3-0.7-0.7v-8.4c0-1.9-0.6-2.5-1.6-2.5c-0.9,0-2,0.8-2.8,2.1v8.9c0,0.5-0.3,0.7-0.7,0.7 h-1.3c-0.5,0-0.7-0.3-0.7-0.7V56.2c0-0.5,0.3-0.7,0.7-0.7h1.1c0.5,0,0.8,0.3,0.8,0.7v1.3c1-1.5,2.3-2.4,3.7-2.4 c1.7,0,2.8,0.9,3.4,2.5c1-1.7,2.3-2.5,3.8-2.5C257.5,55.1,258.9,56.7,258.9,59.9z"></path> <path d="M265.6,49.8c0.5,0,0.7,0.3,0.7,0.7v6.6c0.9-1.3,2.2-2.1,3.6-2.1c2.3,0,3.6,1.6,3.6,4.9v4.4c0,3.5-1.6,5.3-5.1,5.3 c-3.5,0-5-1.7-5-5.3V50.6c0-0.5,0.3-0.7,0.7-0.7H265.6z M266.3,59.7v5.1c0,1.7,0.8,2.5,2.1,2.5c1.5,0,2.3-0.9,2.3-2.6v-4.4 c0-2-0.7-2.7-1.6-2.7C268.2,57.6,267.1,58.4,266.3,59.7z"></path> <path d="M287.2,55.4c0.5,0,0.8,0.3,0.8,0.7v12.5c0,0.5-0.3,0.7-0.8,0.7h-1.1c-0.5,0-0.7-0.3-0.7-0.7v-1.2c-1,1.5-2.3,2.3-3.7,2.3 c-2.2,0-3.6-1.5-3.6-4.8v-8.8c0-0.5,0.3-0.7,0.7-0.7h1.3c0.5,0,0.8,0.3,0.8,0.7v8.3c0,1.9,0.6,2.6,1.5,2.6c0.9,0,2-0.7,2.7-2v-8.9 c0-0.5,0.3-0.7,0.7-0.7H287.2z"></path> <path d="M299.7,55.9v1.7c0,0.5-0.2,0.6-0.6,0.6c-0.3,0-0.4,0-0.6,0c-1.1,0-2.2,0.6-3,1.9v8.5c0,0.5-0.3,0.7-0.7,0.7h-1.3 c-0.5,0-0.7-0.3-0.7-0.7V56.2c0-0.5,0.3-0.7,0.7-0.7h1.1c0.5,0,0.8,0.3,0.8,0.7v1.3c1-1.5,2.3-2.4,3.6-2.4 C299.6,55.1,299.7,55.3,299.7,55.9z"></path> <path d="M310,55.5l3.9-0.1c0.5,0,0.7,0.2,0.7,0.7v0.9c0,0.5-0.2,0.8-0.8,0.8l-1.5-0.1c0.3,0.6,0.5,1.3,0.5,2.1v0.6 c0,2.6-1.7,4.6-5,4.6c-0.8,0-1.5-0.1-2.1-0.3c-0.4,0.3-0.5,0.7-0.5,1v0.2c0,0.5,0.3,0.7,1.2,0.8l4.1,0.3c1.8,0.1,3.1,1.4,3.1,3.3 v1.1c0,2.4-1.1,3.7-5.8,3.7c-1.1,0-2.8-0.2-4.2-0.5c-0.5-0.1-0.7-0.4-0.6-0.9l0-1c0-0.5,0.3-0.8,0.9-0.6c1.3,0.4,2.8,0.6,3.8,0.6 c2.8,0,3.1-0.4,3.1-1.6v-0.2c0-0.7-0.4-1.2-1.2-1.2l-4.2-0.3c-2-0.1-2.9-1.1-2.9-2.7V66c0-0.9,0.5-1.7,1.3-2.3 c-0.7-0.7-1-1.9-1-3.5v-0.6c0-2.7,1.7-4.5,5-4.5C308.6,55.1,309.3,55.2,310,55.5z M305.5,59.6v0.9c0,1.8,0.4,2.1,2,2.1 c1.6,0,2.3-0.8,2.3-2.1v-0.8c0-0.8-0.1-1.4-0.3-1.9c-0.4-0.2-1.1-0.3-1.9-0.3C306.3,57.5,305.5,58.2,305.5,59.6z"></path> </g> </svg> 